<svg width="114" height="46" viewBox="0 0 114 46" fill="none" xmlns="http://www.w3.org/2000/svg">
<path fill-rule="evenodd" clip-rule="evenodd" d="M79.4698 22.0125C79.4698 22.0125 75.8205 23.3292 77.8955 25.0598C79.9704 26.7903 83.4142 21.6102 90.0702 25.4128C90.0702 25.4128 86.9447 19.6597 79.4698 22.0125Z" fill="#D507D3"/>
<path fill-rule="evenodd" clip-rule="evenodd" d="M17.757 23.193C18.432 23.1291 19.1078 23.3074 19.6634 23.696C20.2191 24.0846 20.6183 24.6583 20.7898 25.3143C20.8619 25.6731 20.8609 26.0427 20.7869 26.4011C20.7129 26.7595 20.5674 27.0993 20.3591 27.4002C20.1509 27.7011 19.8841 27.957 19.5747 28.1525C19.2654 28.348 18.9198 28.4791 18.5586 28.5381C16.776 28.8912 15.2103 27.6699 15.1062 26.0667C15.0049 24.5474 16.2377 23.3088 17.757 23.193Z" fill="#6622CC"/>
<path fill-rule="evenodd" clip-rule="evenodd" d="M0 9.01599C0.0231513 14.9688 4.50583 17.935 8.9393 17.935C12.1544 17.935 15.4651 16.5402 16.7124 12.9025C17.3085 11.2096 17.3085 9.5398 17.2101 7.79766H8.96535V11.6668H12.6753C11.8795 13.3337 10.7335 13.8083 8.9393 13.8083C6.30005 13.8083 4.59843 11.9157 4.59843 9.02468C4.59843 6.35938 6.11774 4.16869 8.9393 4.16869C10.7104 4.16869 11.8535 4.76773 12.577 6.26099H16.9612C16.1133 1.92012 12.4525 0.108524 8.9393 0.082479C4.50583 0.0911608 0.0231513 3.06321 0 9.01599ZM31.208 17.744H35.5662V17.0958L27.6948 0.0911604H25.779L17.9307 17.0871V17.744H22.2918L23.3134 15.5505H30.2009L31.208 17.744ZM28.7539 11.7334H24.7574L26.7253 7.14942L28.7539 11.7334ZM40.3296 12.4048H36.0148C35.9135 20.0765 50.111 19.9521 50.111 12.6276C50.111 8.26937 46.7252 7.74557 43.264 7.37225C41.6926 7.19862 40.3991 6.92369 40.4974 5.60407C40.6479 3.53781 45.3303 3.33813 45.3303 5.65327H49.5641C49.6654 -1.87091 36.1132 -1.87091 36.2521 5.65327C36.3013 9.4414 38.7929 10.735 42.5782 11.0099C44.3145 11.1083 45.7615 11.3832 45.7615 12.6044C45.7788 14.6476 40.3296 14.6215 40.3296 12.4048ZM62.9021 12.0806V8.09573H57.285V4.28444H63.6112V0.299523H52.7532V17.744H57.285V12.0806H62.9021ZM83.2493 9.04204C83.2493 -3.01401 65.3678 -3.01401 65.3678 9.04204C65.3678 21.0981 83.2493 21.1212 83.2493 9.04204ZM69.9372 9.04204C69.9372 2.76514 78.6798 2.76514 78.6798 9.04204C78.6798 15.3681 69.9372 15.3681 69.9372 9.04204ZM97.2876 11.5569C101.695 8.57033 100.451 0.325568 93.6008 0.299523H85.9551V17.744H90.4117V12.6044H92.7268L95.7162 17.744H100.7V17.0958L97.2876 11.5569ZM93.6008 8.64268H90.4175V4.28444C91.4651 4.28444 92.559 4.26129 93.6008 4.28444C96.1416 4.31049 96.0172 8.64268 93.6008 8.64268ZM105.333 4.28444V17.744H109.74V4.28444H114V0.299523H101.047V4.28444H105.333Z" fill="white"/>
<path fill-rule="evenodd" clip-rule="evenodd" d="M111.231 24.3482C111.231 24.3482 109.859 43.6101 81.1107 38.2911C45.2262 31.6553 50.4352 25.5868 28.9334 32.972C5.29592 41.0895 3.44092 26.7935 3.44092 26.7935C3.44092 26.7935 11.8333 35.2756 26.5199 29.7743C32.5624 27.5112 40.3354 21.2083 50.085 21.3645C63.4665 21.5816 61.898 34.0052 78.7348 34.1643C88.6552 34.2598 99.4089 25.772 99.7244 25.827C99.7678 25.8472 111.014 22.8665 111.231 24.3482Z" fill="url(#paint0_linear_750_15)"/>
<path fill-rule="evenodd" clip-rule="evenodd" d="M8.83239 37.2694C8.83239 37.2694 18.9379 43.8414 31.7464 37.7324C42.8619 32.4336 47.8279 33.7561 52.6723 34.989C62.6187 37.5182 68.7567 46.854 82.3321 42.3858C87.709 40.6118 88.5019 32.7085 88.5019 32.7085C88.5019 32.7085 75.8555 22.4409 62.746 30.4368L48.7829 29.4095L37.3201 31.5626C37.3201 31.5626 15.0659 40.1141 4.61885 26.9757C4.2137 26.4664 3.03877 26.3969 2.69729 26.0728C1.70757 25.1062 1.30243 24.212 1.2185 24.6692C0.642612 27.8439 2.787 33.5188 8.83239 37.2694Z" fill="url(#paint1_linear_750_15)"/>
<path fill-rule="evenodd" clip-rule="evenodd" d="M5.29333 31.6348C5.29333 31.6348 13.214 38.8378 26.3205 35.0525C38.9582 31.4004 43.1052 29.7335 52.1169 31.1342C62.8244 32.7953 67.035 43.2886 75.847 43.4101C83.5101 43.5201 86.5747 40.5162 92.8574 33.2959C96.7989 28.7669 100.868 24.7473 109.686 24.4868C112.762 24.3942 111.089 23.6389 107.168 23.4508C102.488 23.228 94.2233 23.9312 86.8033 30.1068C73.746 40.9677 65.9672 20.3919 36.183 30.2139C16.6954 36.6413 9.74706 31.3107 2.27208 25.0048C0.353416 23.39 1.71355 26.4026 1.71355 26.4026C1.71355 26.4026 3.42964 30.0084 5.29333 31.6348Z" fill="url(#paint2_linear_750_15)"/>
<path fill-rule="evenodd" clip-rule="evenodd" d="M99.8717 39.7871C100.618 39.7584 101.348 40.0097 101.919 40.4915C102.49 40.9733 102.86 41.651 102.957 42.3916C103.046 43.1247 102.868 43.8655 102.454 44.4772C102.04 45.0889 101.419 45.5302 100.705 45.7196C100.328 45.8202 99.935 45.8454 99.5483 45.7939C99.1615 45.7425 98.7887 45.6152 98.4511 45.4196C98.1136 45.2239 97.8178 44.9637 97.5809 44.6536C97.344 44.3436 97.1705 43.99 97.0704 43.6129C97.0414 43.5032 97.0182 43.3921 97.0009 43.2801C96.8759 42.4892 97.07 41.6811 97.5404 41.0332C98.0109 40.3853 98.7192 39.9507 99.5099 39.8247C99.6295 39.8036 99.7504 39.791 99.8717 39.7871Z" fill="#FADD2E"/>
<path fill-rule="evenodd" clip-rule="evenodd" d="M37.6845 38.7016C37.6845 38.7016 34.2755 41.9717 37.9913 42.9325C42.0225 43.9772 44.2305 36.9768 56.0811 42.6431C56.0811 42.6315 45.7788 32.1324 37.6845 38.7016Z" fill="#781ECD"/>
<defs>
<linearGradient id="paint0_linear_750_15" x1="55.7861" y1="20.9247" x2="61.5884" y2="38.7801" gradientUnits="userSpaceOnUse">
<stop stop-color="#F9C540"/>
<stop offset="1" stop-color="#FAE925"/>
</linearGradient>
<linearGradient id="paint1_linear_750_15" x1="49.2575" y1="23.4133" x2="36.8976" y2="42.4466" gradientUnits="userSpaceOnUse">
<stop stop-color="#811CCE"/>
<stop offset="0.68" stop-color="#F500D5"/>
<stop offset="1" stop-color="#F500D5"/>
</linearGradient>
<linearGradient id="paint2_linear_750_15" x1="111.277" y1="33.7705" x2="1.29104" y2="31.8518" gradientUnits="userSpaceOnUse">
<stop stop-color="#5409EA"/>
<stop offset="0.49" stop-color="#FD00F7"/>
<stop offset="1" stop-color="#FD00F7"/>
</linearGradient>
</defs>
</svg>
