<svg width="54" height="54" viewBox="0 0 54 54" fill="none" xmlns="http://www.w3.org/2000/svg">
<circle cx="27" cy="27" r="27" fill="url(#paint0_linear_5_843)"/>
<g clip-path="url(#clip0_5_843)">
<path d="M39.5159 28.2815C37.8257 27.4665 36.629 26.8313 36.629 26.0769C36.629 25.3239 37.8257 24.6892 39.5159 23.8751C41.6244 22.8586 44.25 21.5934 44.25 18.7313C44.25 15.8687 41.6252 14.6029 39.5151 13.586C38.5207 13.1065 37.6486 12.6639 37.1287 12.2171L37.3509 11.9851C37.5878 11.7379 37.7177 11.4136 37.7177 11.0718C37.7177 10.3427 37.125 9.75 36.3967 9.75C36.0546 9.75 35.7304 9.87998 35.4832 10.1163L11.139 33.4018C10.7331 33.7909 10.5 34.3358 10.5 34.8974C10.5 36.039 11.4287 36.9677 12.5703 36.9677C13.1319 36.9677 13.6774 36.7346 14.0659 36.3288L34.8652 14.5833C35.788 15.4128 37.0046 16.0013 38.0965 16.5279C39.7872 17.3428 40.9839 17.9781 40.9839 18.7313C40.9839 19.4841 39.7872 20.1188 38.097 20.9332C35.9885 21.9496 33.3629 23.2145 33.3629 26.0769C33.3629 28.9406 35.9885 30.2064 38.0978 31.223C39.7872 32.038 40.9839 32.6732 40.9839 33.4273C40.9839 34.1822 39.7872 34.8169 38.0944 35.6329C35.9861 36.6504 33.3629 37.9161 33.3629 40.7782V41.8669C33.3629 42.7672 34.0957 43.5 34.996 43.5C35.8962 43.5 36.629 42.7672 36.629 41.8669V40.7782C36.629 40.0231 37.8257 39.3884 39.5185 38.5726C41.6268 37.5552 44.25 36.2894 44.25 33.4273C44.25 30.5639 41.6252 29.2984 39.5159 28.2815ZM36.2354 10.903C36.372 10.7739 36.629 10.8823 36.629 11.0718C36.629 11.1316 36.6062 11.1888 36.5642 11.2324L15.342 33.4191L14.0487 32.1257L36.2354 10.903ZM13.2789 35.5758C13.095 35.7685 12.8364 35.879 12.5703 35.879C12.0291 35.879 11.5887 35.4386 11.5887 34.8974C11.5887 34.6314 11.6993 34.3728 11.892 34.1883L13.2622 32.8779L14.5898 34.2056L13.2789 35.5758ZM39.0433 37.5932C37.2414 38.4615 35.5403 39.2812 35.5403 40.7782V41.8669C35.5403 42.1673 35.2958 42.4113 34.996 42.4113C34.6961 42.4113 34.4516 42.1673 34.4516 41.8669V40.7782C34.4516 38.5997 36.5442 37.59 38.5696 36.6124C40.3715 35.744 42.0726 34.9243 42.0726 33.4273C42.0726 31.9314 40.3715 31.1111 38.5702 30.2428C36.5453 29.2668 34.4516 28.257 34.4516 26.0769C34.4516 23.8984 36.5453 22.8897 38.5702 21.9143C40.3715 21.0459 42.0726 20.2262 42.0726 18.7313C42.0726 17.2359 40.3715 16.4157 38.5696 15.5473C37.507 15.0346 36.4145 14.5065 35.6177 13.7968L36.376 13.0036C36.9982 13.5528 37.9285 14.0291 39.0427 14.5665C41.0676 15.5431 43.1613 16.5523 43.1613 18.7313C43.1613 20.9098 41.0676 21.9185 39.0427 22.894C37.2414 23.7624 35.5403 24.5821 35.5403 26.0769C35.5403 27.5734 37.2414 28.3936 39.0433 29.262C41.0676 30.2385 43.1613 31.2478 43.1613 33.4273C43.1613 35.6058 41.0687 36.6161 39.0433 37.5932Z" fill="white"/>
</g>
<defs>
<linearGradient id="paint0_linear_5_843" x1="0" y1="0" x2="58.5138" y2="3.44467" gradientUnits="userSpaceOnUse">
<stop stop-color="#7775E7"/>
<stop offset="0.6417" stop-color="#A93CF6"/>
<stop offset="1" stop-color="#C41DFF"/>
</linearGradient>
<clipPath id="clip0_5_843">
<rect width="33.75" height="33.75" fill="white" transform="translate(10.5 9.75)"/>
</clipPath>
</defs>
</svg>
